<mxfile host="app.diagrams.net" agent="Mozilla/5.0 (X11; Linux x86_64; rv:140.0) Gecko/20100101 Firefox/140.0" version="28.2.4">
  <diagram name="PÃ¡gina-1" id="7kTeJVYpfzh1vVqRRxn1">
    <mxGraphModel dx="1425" dy="752" grid="1" gridSize="10" guides="1" tooltips="1" connect="1" arrows="1" fold="1" page="1" pageScale="1" pageWidth="1169" pageHeight="827" math="0" shadow="0">
      <root>
        <mxCell id="0" />
        <mxCell id="1" parent="0" />
        <mxCell id="JJM5X_U5aSj5L9A0FFN3-4" value="" style="edgeStyle=orthogonalEdgeStyle;rounded=0;orthogonalLoop=1;jettySize=auto;html=1;endArrow=none;endFill=0;" edge="1" parent="1" source="bznNcdpYTy7k50MfixP5-1" target="jyMQtzLPnYQId5nyqDgm-1">
          <mxGeometry relative="1" as="geometry" />
        </mxCell>
        <mxCell id="bznNcdpYTy7k50MfixP5-1" value="&lt;font style=&quot;font-size: 13px;&quot;&gt;&lt;b&gt;br-red1&lt;/b&gt;&lt;/font&gt;" style="fontColor=#0066CC;verticalAlign=middle;verticalLabelPosition=middle;labelPosition=left;align=right;html=1;outlineConnect=0;fillColor=#CCCCCC;strokeColor=#6881B3;gradientColor=none;gradientDirection=north;strokeWidth=2;shape=mxgraph.networks.switch;spacingBottom=0;" parent="1" vertex="1">
          <mxGeometry x="315" y="330" width="80" height="30" as="geometry" />
        </mxCell>
        <mxCell id="bznNcdpYTy7k50MfixP5-17" value="" style="edgeStyle=orthogonalEdgeStyle;rounded=0;orthogonalLoop=1;jettySize=auto;html=1;endArrow=none;endFill=0;" parent="1" source="bznNcdpYTy7k50MfixP5-3" target="bznNcdpYTy7k50MfixP5-1" edge="1">
          <mxGeometry relative="1" as="geometry" />
        </mxCell>
        <mxCell id="bznNcdpYTy7k50MfixP5-3" value="&lt;font size=&quot;1&quot;&gt;&lt;b style=&quot;font-size: 14px;&quot;&gt;router&lt;/b&gt;&lt;/font&gt;" style="fontColor=#0066CC;verticalAlign=bottom;verticalLabelPosition=top;labelPosition=center;align=center;html=1;outlineConnect=0;fillColor=#CCCCCC;strokeColor=#6881B3;gradientColor=none;gradientDirection=north;strokeWidth=2;shape=mxgraph.networks.desktop_pc;" parent="1" vertex="1">
          <mxGeometry x="320" y="150" width="70" height="130" as="geometry" />
        </mxCell>
        <mxCell id="bznNcdpYTy7k50MfixP5-13" value="" style="edgeStyle=orthogonalEdgeStyle;rounded=0;orthogonalLoop=1;jettySize=auto;html=1;entryX=0.95;entryY=0.05;entryDx=0;entryDy=0;entryPerimeter=0;endArrow=none;endFill=0;" parent="1" source="bznNcdpYTy7k50MfixP5-4" target="bznNcdpYTy7k50MfixP5-5" edge="1">
          <mxGeometry relative="1" as="geometry" />
        </mxCell>
        <mxCell id="bznNcdpYTy7k50MfixP5-4" value="&lt;font size=&quot;1&quot;&gt;&lt;b style=&quot;font-size: 14px;&quot;&gt;cliente1&lt;/b&gt;&lt;/font&gt;" style="fontColor=#0066CC;verticalAlign=top;verticalLabelPosition=bottom;labelPosition=center;align=center;html=1;outlineConnect=0;fillColor=#CCCCCC;strokeColor=#6881B3;gradientColor=none;gradientDirection=north;strokeWidth=2;shape=mxgraph.networks.pc;" parent="1" vertex="1">
          <mxGeometry x="660" y="130" width="100" height="70" as="geometry" />
        </mxCell>
        <mxCell id="bznNcdpYTy7k50MfixP5-16" value="" style="edgeStyle=orthogonalEdgeStyle;rounded=0;orthogonalLoop=1;jettySize=auto;html=1;endArrow=none;endFill=0;" parent="1" source="bznNcdpYTy7k50MfixP5-5" target="bznNcdpYTy7k50MfixP5-3" edge="1">
          <mxGeometry relative="1" as="geometry" />
        </mxCell>
        <mxCell id="bznNcdpYTy7k50MfixP5-5" value="&lt;b&gt;&lt;font style=&quot;font-size: 14px;&quot;&gt;br-red2&lt;/font&gt;&lt;/b&gt;" style="fontColor=#0066CC;verticalAlign=top;verticalLabelPosition=bottom;labelPosition=center;align=center;html=1;outlineConnect=0;fillColor=#CCCCCC;strokeColor=#6881B3;gradientColor=none;gradientDirection=north;strokeWidth=2;shape=mxgraph.networks.switch;" parent="1" vertex="1">
          <mxGeometry x="490" y="200" width="80" height="30" as="geometry" />
        </mxCell>
        <mxCell id="bznNcdpYTy7k50MfixP5-15" value="" style="edgeStyle=orthogonalEdgeStyle;rounded=0;orthogonalLoop=1;jettySize=auto;html=1;endArrow=none;endFill=0;entryX=1;entryY=0.5;entryDx=0;entryDy=0;entryPerimeter=0;" parent="1" source="bznNcdpYTy7k50MfixP5-6" target="bznNcdpYTy7k50MfixP5-5" edge="1">
          <mxGeometry relative="1" as="geometry">
            <mxPoint x="580" y="275" as="targetPoint" />
          </mxGeometry>
        </mxCell>
        <mxCell id="bznNcdpYTy7k50MfixP5-6" value="&lt;font size=&quot;1&quot;&gt;&lt;b style=&quot;font-size: 14px;&quot;&gt;cliente2&lt;/b&gt;&lt;/font&gt;" style="fontColor=#0066CC;verticalAlign=top;verticalLabelPosition=bottom;labelPosition=center;align=center;html=1;outlineConnect=0;fillColor=#CCCCCC;strokeColor=#6881B3;gradientColor=none;gradientDirection=north;strokeWidth=2;shape=mxgraph.networks.pc;" parent="1" vertex="1">
          <mxGeometry x="660" y="240" width="100" height="70" as="geometry" />
        </mxCell>
        <mxCell id="jyMQtzLPnYQId5nyqDgm-1" value="&lt;font style=&quot;font-size: 12px;&quot;&gt;&lt;b style=&quot;&quot;&gt;Servidor Web&lt;/b&gt;&lt;/font&gt;" style="fontColor=#0066CC;verticalAlign=top;verticalLabelPosition=bottom;labelPosition=center;align=center;html=1;outlineConnect=0;fillColor=#CCCCCC;strokeColor=#6881B3;gradientColor=none;gradientDirection=north;strokeWidth=2;shape=mxgraph.networks.desktop_pc;" parent="1" vertex="1">
          <mxGeometry x="338" y="420" width="34" height="70" as="geometry" />
        </mxCell>
        <mxCell id="JJM5X_U5aSj5L9A0FFN3-6" value="" style="edgeStyle=orthogonalEdgeStyle;rounded=0;orthogonalLoop=1;jettySize=auto;html=1;endArrow=none;endFill=0;labelPosition=center;verticalLabelPosition=bottom;align=center;verticalAlign=top;" edge="1" parent="1" source="JJM5X_U5aSj5L9A0FFN3-5" target="bznNcdpYTy7k50MfixP5-3">
          <mxGeometry relative="1" as="geometry" />
        </mxCell>
        <mxCell id="JJM5X_U5aSj5L9A0FFN3-5" value="&lt;font style=&quot;font-size: 14px;&quot;&gt;&lt;b&gt;br-nat&lt;/b&gt;&lt;/font&gt;" style="fontColor=#0066CC;verticalAlign=middle;verticalLabelPosition=middle;labelPosition=left;align=right;html=1;outlineConnect=0;fillColor=#CCCCCC;strokeColor=#6881B3;gradientColor=none;gradientDirection=north;strokeWidth=2;shape=mxgraph.networks.switch;spacingBottom=0;" vertex="1" parent="1">
          <mxGeometry x="140" y="200" width="80" height="30" as="geometry" />
        </mxCell>
      </root>
    </mxGraphModel>
  </diagram>
</mxfile>
